<svg id="visual" viewBox="0 0 1280 720" width="1280" height="720" xmlns="http://www.w3.org/2000/svg" xmlns:xlink="http://www.w3.org/1999/xlink" version="1.1"><rect x="0" y="0" width="1280" height="720" fill="#2196f3"></rect><defs><linearGradient id="grad1_0" x1="43.8%" y1="0%" x2="100%" y2="100%"><stop offset="14.444444444444446%" stop-color="#2196f3" stop-opacity="1"></stop><stop offset="85.55555555555554%" stop-color="#2196f3" stop-opacity="1"></stop></linearGradient></defs><defs><linearGradient id="grad2_0" x1="0%" y1="0%" x2="56.3%" y2="100%"><stop offset="14.444444444444446%" stop-color="#2196f3" stop-opacity="1"></stop><stop offset="85.55555555555554%" stop-color="#2196f3" stop-opacity="1"></stop></linearGradient></defs><g transform="translate(1280, 0)"><path d="M0 252C-45.9 246.5 -91.8 240.9 -126 218.2C-160.2 195.6 -182.7 155.7 -201.8 116.5C-220.8 77.3 -236.4 38.6 -252 0L0 0Z" fill="#1769aa"></path></g><g transform="translate(0, 720)"><path d="M0 -252C45.5 -246.3 91.1 -240.5 126 -218.2C160.9 -196 185.2 -157.1 204.4 -118C223.6 -78.9 237.8 -39.4 252 0L0 0Z" fill="#1769aa"></path></g></svg>