<svg id="visual" viewBox="0 0 1280 720" width="1280" height="720" xmlns="http://www.w3.org/2000/svg" xmlns:xlink="http://www.w3.org/1999/xlink" version="1.1"><rect x="0" y="0" width="1280" height="720" fill="#2196f3"></rect><g transform="translate(684.1913038654981 368.41334111336073)"><path d="M126 -232.2C154 -202.1 161 -149.5 184.5 -107.1C208 -64.7 248 -32.3 250.2 1.2C252.3 34.8 216.7 69.7 191.6 109.4C166.5 149.1 152 193.6 121.8 221C91.7 248.4 45.8 258.7 7.9 245C-30 231.3 -60 193.6 -111.1 178.3C-162.2 162.9 -234.4 170 -279.4 144C-324.4 118 -342.2 59 -338.1 2.3C-334.1 -54.3 -308.2 -108.7 -271 -148.2C-233.9 -187.8 -185.4 -212.5 -138.4 -231.7C-91.3 -250.9 -45.7 -264.4 1.7 -267.3C49 -270.2 98 -262.4 126 -232.2" fill="#1769aa"></path></g></svg>