<svg id="visual" viewBox="0 0 1280 720" width="1280" height="720" xmlns="http://www.w3.org/2000/svg" xmlns:xlink="http://www.w3.org/1999/xlink" version="1.1"><g stroke-width="1" stroke-linejoin="bevel"><path d="M586.8 285.6L532.8 197.7L475.5 293.6Z" fill="#1872b8" stroke="#FFFFFF"></path><path d="M532.8 197.7L436.5 258.7L475.5 293.6Z" fill="#2196f3" stroke="#FFFFFF"></path><path d="M511.5 438.4L531.8 390.4L475.5 293.6Z" fill="#1872b8" stroke="#FFFFFF"></path><path d="M475.5 293.6L531.8 390.4L586.8 285.6Z" fill="#2091ec" stroke="#FFFFFF"></path><path d="M586.8 285.6L625.8 146.9L532.8 197.7Z" fill="#1b7fce" stroke="#FFFFFF"></path><path d="M343.1 217.7L366.1 275.6L436.5 258.7Z" fill="#1976bf" stroke="#FFFFFF"></path><path d="M436.5 258.7L366.1 275.6L475.5 293.6Z" fill="#1872b8" stroke="#FFFFFF"></path><path d="M343.1 217.7L436.5 258.7L454.5 69.9Z" fill="#186db1" stroke="#FFFFFF"></path><path d="M475.5 470.3L511.5 438.4L475.5 293.6Z" fill="#1976bf" stroke="#FFFFFF"></path><path d="M723.2 275.6L708.2 216.7L586.8 285.6Z" fill="#2196f3" stroke="#FFFFFF"></path><path d="M723.2 275.6L586.8 285.6L751.2 439.4Z" fill="#2091ec" stroke="#FFFFFF"></path><path d="M586.8 285.6L708.2 216.7L625.8 146.9Z" fill="#1976bf" stroke="#FFFFFF"></path><path d="M454.5 69.9L436.5 258.7L532.8 197.7Z" fill="#186db1" stroke="#FFFFFF"></path><path d="M773.5 310.6L723.2 275.6L751.2 439.4Z" fill="#2196f3" stroke="#FFFFFF"></path><path d="M625.8 146.9L454.5 69.9L532.8 197.7Z" fill="#1c84d5" stroke="#FFFFFF"></path><path d="M372.1 465.3L475.5 470.3L475.5 293.6Z" fill="#2196f3" stroke="#FFFFFF"></path><path d="M751.2 439.4L586.8 285.6L531.8 390.4Z" fill="#1e8de4" stroke="#FFFFFF"></path><path d="M664.2 567.3L531.8 390.4L511.5 438.4Z" fill="#1976bf" stroke="#FFFFFF"></path><path d="M723.2 275.6L820.5 254.7L708.2 216.7Z" fill="#1b7fce" stroke="#FFFFFF"></path><path d="M366.1 275.6L372.1 465.3L475.5 293.6Z" fill="#1b7fce" stroke="#FFFFFF"></path><path d="M308.1 410.4L372.1 465.3L366.1 275.6Z" fill="#1a7bc7" stroke="#FFFFFF"></path><path d="M628.8 0L454.5 69.9L625.8 146.9Z" fill="#1769aa" stroke="#FFFFFF"></path><path d="M628.8 0L478.5 0L454.5 69.9Z" fill="#1976bf" stroke="#FFFFFF"></path><path d="M454.5 69.9L358.1 52.9L343.1 217.7Z" fill="#1a7bc7" stroke="#FFFFFF"></path><path d="M273.7 349.6L308.1 410.4L366.1 275.6Z" fill="#1e8de4" stroke="#FFFFFF"></path><path d="M352.1 0L358.1 52.9L454.5 69.9Z" fill="#1769aa" stroke="#FFFFFF"></path><path d="M343.1 217.7L273.7 349.6L366.1 275.6Z" fill="#1b7fce" stroke="#FFFFFF"></path><path d="M181.7 236.7L273.7 349.6L343.1 217.7Z" fill="#1c84d5" stroke="#FFFFFF"></path><path d="M479.5 638.1L533.8 533.3L475.5 470.3Z" fill="#1976bf" stroke="#FFFFFF"></path><path d="M475.5 470.3L533.8 533.3L511.5 438.4Z" fill="#1b7fce" stroke="#FFFFFF"></path><path d="M790.5 69.9L711.2 54.9L708.2 216.7Z" fill="#1d88dd" stroke="#FFFFFF"></path><path d="M708.2 216.7L711.2 54.9L625.8 146.9Z" fill="#2196f3" stroke="#FFFFFF"></path><path d="M711.2 54.9L628.8 0L625.8 146.9Z" fill="#1b7fce" stroke="#FFFFFF"></path><path d="M664.2 567.3L751.2 439.4L531.8 390.4Z" fill="#1c84d5" stroke="#FFFFFF"></path><path d="M751.2 439.4L761.5 432.4L773.5 310.6Z" fill="#1b7fce" stroke="#FFFFFF"></path><path d="M926.9 334.6L820.5 254.7L773.5 310.6Z" fill="#1e8de4" stroke="#FFFFFF"></path><path d="M773.5 310.6L820.5 254.7L723.2 275.6Z" fill="#1d88dd" stroke="#FFFFFF"></path><path d="M711.2 54.9L671.2 0L628.8 0Z" fill="#1976bf" stroke="#FFFFFF"></path><path d="M478.5 0L352.1 0L454.5 69.9Z" fill="#1872b8" stroke="#FFFFFF"></path><path d="M191.7 122.9L181.7 236.7L343.1 217.7Z" fill="#1976bf" stroke="#FFFFFF"></path><path d="M820.5 254.7L790.5 69.9L708.2 216.7Z" fill="#1a7bc7" stroke="#FFFFFF"></path><path d="M711.2 54.9L803.5 0L671.2 0Z" fill="#1e8de4" stroke="#FFFFFF"></path><path d="M751.2 439.4L814.5 477.3L761.5 432.4Z" fill="#186db1" stroke="#FFFFFF"></path><path d="M533.8 533.3L619.8 575.1L511.5 438.4Z" fill="#1769aa" stroke="#FFFFFF"></path><path d="M479.5 638.1L619.8 575.1L533.8 533.3Z" fill="#1d88dd" stroke="#FFFFFF"></path><path d="M619.8 575.1L664.2 567.3L511.5 438.4Z" fill="#1c84d5" stroke="#FFFFFF"></path><path d="M191.7 122.9L343.1 217.7L358.1 52.9Z" fill="#1c84d5" stroke="#FFFFFF"></path><path d="M273.7 349.6L189.7 426.4L308.1 410.4Z" fill="#1e8de4" stroke="#FFFFFF"></path><path d="M664.2 567.3L814.5 477.3L751.2 439.4Z" fill="#1e8de4" stroke="#FFFFFF"></path><path d="M916.9 398.4L926.9 334.6L773.5 310.6Z" fill="#1769aa" stroke="#FFFFFF"></path><path d="M352.1 0L282.7 0L358.1 52.9Z" fill="#1769aa" stroke="#FFFFFF"></path><path d="M282.7 0L191.7 122.9L358.1 52.9Z" fill="#2196f3" stroke="#FFFFFF"></path><path d="M980.9 151.7L878.9 132.9L820.5 254.7Z" fill="#2196f3" stroke="#FFFFFF"></path><path d="M820.5 254.7L878.9 132.9L790.5 69.9Z" fill="#2091ec" stroke="#FFFFFF"></path><path d="M664.2 567.3L680.2 606.1L814.5 477.3Z" fill="#2196f3" stroke="#FFFFFF"></path><path d="M619.8 575.1L680.2 606.1L664.2 567.3Z" fill="#2196f3" stroke="#FFFFFF"></path><path d="M683.2 720L680.2 606.1L619.8 575.1Z" fill="#2196f3" stroke="#FFFFFF"></path><path d="M90.4 343.6L189.7 426.4L273.7 349.6Z" fill="#1c84d5" stroke="#FFFFFF"></path><path d="M308.1 410.4L226.7 548.3L372.1 465.3Z" fill="#1a7bc7" stroke="#FFFFFF"></path><path d="M396.1 644.1L479.5 638.1L475.5 470.3Z" fill="#1976bf" stroke="#FFFFFF"></path><path d="M936.9 0L803.5 0L790.5 69.9Z" fill="#186db1" stroke="#FFFFFF"></path><path d="M790.5 69.9L803.5 0L711.2 54.9Z" fill="#2091ec" stroke="#FFFFFF"></path><path d="M396.1 644.1L475.5 470.3L372.1 465.3Z" fill="#186db1" stroke="#FFFFFF"></path><path d="M191.7 122.9L140.4 228.7L181.7 236.7Z" fill="#1b7fce" stroke="#FFFFFF"></path><path d="M181.7 236.7L90.4 343.6L273.7 349.6Z" fill="#1e8de4" stroke="#FFFFFF"></path><path d="M916.9 398.4L773.5 310.6L761.5 432.4Z" fill="#1c84d5" stroke="#FFFFFF"></path><path d="M226.7 548.3L396.1 644.1L372.1 465.3Z" fill="#1976bf" stroke="#FFFFFF"></path><path d="M814.5 477.3L916.9 398.4L761.5 432.4Z" fill="#1872b8" stroke="#FFFFFF"></path><path d="M945.9 467.3L916.9 398.4L814.5 477.3Z" fill="#1b7fce" stroke="#FFFFFF"></path><path d="M189.7 426.4L226.7 548.3L308.1 410.4Z" fill="#1a7bc7" stroke="#FFFFFF"></path><path d="M140.4 228.7L90.4 343.6L181.7 236.7Z" fill="#1b7fce" stroke="#FFFFFF"></path><path d="M189.7 426.4L123.4 515.3L226.7 548.3Z" fill="#1b7fce" stroke="#FFFFFF"></path><path d="M90.4 343.6L121.4 458.4L189.7 426.4Z" fill="#1976bf" stroke="#FFFFFF"></path><path d="M499.5 720L527.8 720L479.5 638.1Z" fill="#1976bf" stroke="#FFFFFF"></path><path d="M479.5 638.1L527.8 720L619.8 575.1Z" fill="#1976bf" stroke="#FFFFFF"></path><path d="M499.5 720L479.5 638.1L396.1 644.1Z" fill="#186db1" stroke="#FFFFFF"></path><path d="M307.1 720L499.5 720L396.1 644.1Z" fill="#1b7fce" stroke="#FFFFFF"></path><path d="M926.9 334.6L980.9 151.7L820.5 254.7Z" fill="#1872b8" stroke="#FFFFFF"></path><path d="M878.9 132.9L936.9 0L790.5 69.9Z" fill="#2196f3" stroke="#FFFFFF"></path><path d="M1040.3 185.7L980.9 151.7L926.9 334.6Z" fill="#1a7bc7" stroke="#FFFFFF"></path><path d="M959.9 613.1L945.9 467.3L814.5 477.3Z" fill="#2196f3" stroke="#FFFFFF"></path><path d="M916.9 398.4L1019.3 352.6L926.9 334.6Z" fill="#2091ec" stroke="#FFFFFF"></path><path d="M844.5 650.1L814.5 477.3L680.2 606.1Z" fill="#186db1" stroke="#FFFFFF"></path><path d="M0 511.3L123.4 515.3L121.4 458.4Z" fill="#186db1" stroke="#FFFFFF"></path><path d="M121.4 458.4L123.4 515.3L189.7 426.4Z" fill="#2091ec" stroke="#FFFFFF"></path><path d="M226.7 548.3L307.1 720L396.1 644.1Z" fill="#186db1" stroke="#FFFFFF"></path><path d="M191.7 122.9L81.4 69.9L140.4 228.7Z" fill="#1c84d5" stroke="#FFFFFF"></path><path d="M140.4 228.7L0 297.6L90.4 343.6Z" fill="#2091ec" stroke="#FFFFFF"></path><path d="M282.7 0L125.4 0L191.7 122.9Z" fill="#1a7bc7" stroke="#FFFFFF"></path><path d="M980.9 151.7L936.9 0L878.9 132.9Z" fill="#1d88dd" stroke="#FFFFFF"></path><path d="M527.8 720L683.2 720L619.8 575.1Z" fill="#1a7bc7" stroke="#FFFFFF"></path><path d="M125.4 0L81.4 69.9L191.7 122.9Z" fill="#1c84d5" stroke="#FFFFFF"></path><path d="M945.9 467.3L1019.3 352.6L916.9 398.4Z" fill="#1976bf" stroke="#FFFFFF"></path><path d="M683.2 720L844.5 650.1L680.2 606.1Z" fill="#1769aa" stroke="#FFFFFF"></path><path d="M945.9 467.3L1053.3 438.4L1019.3 352.6Z" fill="#1b7fce" stroke="#FFFFFF"></path><path d="M182.7 642.1L307.1 720L226.7 548.3Z" fill="#1769aa" stroke="#FFFFFF"></path><path d="M123.4 515.3L182.7 642.1L226.7 548.3Z" fill="#2091ec" stroke="#FFFFFF"></path><path d="M1019.3 352.6L1040.3 185.7L926.9 334.6Z" fill="#1872b8" stroke="#FFFFFF"></path><path d="M980.9 151.7L1072.3 0L936.9 0Z" fill="#1a7bc7" stroke="#FFFFFF"></path><path d="M81.4 69.9L0 232.7L140.4 228.7Z" fill="#2196f3" stroke="#FFFFFF"></path><path d="M90.4 343.6L0 401.4L121.4 458.4Z" fill="#1769aa" stroke="#FFFFFF"></path><path d="M0 232.7L0 297.6L140.4 228.7Z" fill="#1769aa" stroke="#FFFFFF"></path><path d="M123.4 515.3L118.4 662.1L182.7 642.1Z" fill="#1a7bc7" stroke="#FFFFFF"></path><path d="M683.2 720L824.5 720L844.5 650.1Z" fill="#1769aa" stroke="#FFFFFF"></path><path d="M959.9 613.1L1001.3 540.3L945.9 467.3Z" fill="#1b7fce" stroke="#FFFFFF"></path><path d="M0 297.6L0 401.4L90.4 343.6Z" fill="#1a7bc7" stroke="#FFFFFF"></path><path d="M959.9 613.1L814.5 477.3L844.5 650.1Z" fill="#2091ec" stroke="#FFFFFF"></path><path d="M1165.6 223.7L1067.3 133.9L1040.3 185.7Z" fill="#1c84d5" stroke="#FFFFFF"></path><path d="M1111.6 337.6L1040.3 185.7L1019.3 352.6Z" fill="#1769aa" stroke="#FFFFFF"></path><path d="M1040.3 185.7L1067.3 133.9L980.9 151.7Z" fill="#1a7bc7" stroke="#FFFFFF"></path><path d="M115.4 720L220.7 720L182.7 642.1Z" fill="#2091ec" stroke="#FFFFFF"></path><path d="M182.7 642.1L220.7 720L307.1 720Z" fill="#1b7fce" stroke="#FFFFFF"></path><path d="M1001.3 540.3L1053.3 438.4L945.9 467.3Z" fill="#1976bf" stroke="#FFFFFF"></path><path d="M951.9 720L959.9 613.1L844.5 650.1Z" fill="#1769aa" stroke="#FFFFFF"></path><path d="M81.4 69.9L0 65.9L0 232.7Z" fill="#1d88dd" stroke="#FFFFFF"></path><path d="M0 0L0 65.9L81.4 69.9Z" fill="#1c84d5" stroke="#FFFFFF"></path><path d="M0 619.1L118.4 662.1L123.4 515.3Z" fill="#1d88dd" stroke="#FFFFFF"></path><path d="M0 401.4L0 511.3L121.4 458.4Z" fill="#2196f3" stroke="#FFFFFF"></path><path d="M1193.6 377.4L1111.6 337.6L1053.3 438.4Z" fill="#2196f3" stroke="#FFFFFF"></path><path d="M1053.3 438.4L1111.6 337.6L1019.3 352.6Z" fill="#186db1" stroke="#FFFFFF"></path><path d="M125.4 0L0 0L81.4 69.9Z" fill="#1976bf" stroke="#FFFFFF"></path><path d="M1122.6 54.9L1072.3 0L1067.3 133.9Z" fill="#1d88dd" stroke="#FFFFFF"></path><path d="M1067.3 133.9L1072.3 0L980.9 151.7Z" fill="#2196f3" stroke="#FFFFFF"></path><path d="M0 720L115.4 720L118.4 662.1Z" fill="#1b7fce" stroke="#FFFFFF"></path><path d="M118.4 662.1L115.4 720L182.7 642.1Z" fill="#1a7bc7" stroke="#FFFFFF"></path><path d="M824.5 720L951.9 720L844.5 650.1Z" fill="#1c84d5" stroke="#FFFFFF"></path><path d="M959.9 613.1L1055.3 611.1L1001.3 540.3Z" fill="#1872b8" stroke="#FFFFFF"></path><path d="M1001.3 540.3L1131.6 526.3L1053.3 438.4Z" fill="#1a7bc7" stroke="#FFFFFF"></path><path d="M1165.6 223.7L1122.6 54.9L1067.3 133.9Z" fill="#186db1" stroke="#FFFFFF"></path><path d="M951.9 720L1055.3 611.1L959.9 613.1Z" fill="#1d88dd" stroke="#FFFFFF"></path><path d="M1111.6 337.6L1165.6 223.7L1040.3 185.7Z" fill="#1e8de4" stroke="#FFFFFF"></path><path d="M1193.6 377.4L1165.6 223.7L1111.6 337.6Z" fill="#1976bf" stroke="#FFFFFF"></path><path d="M0 511.3L0 619.1L123.4 515.3Z" fill="#1769aa" stroke="#FFFFFF"></path><path d="M1280 0L1132.6 0L1122.6 54.9Z" fill="#186db1" stroke="#FFFFFF"></path><path d="M1122.6 54.9L1132.6 0L1072.3 0Z" fill="#2091ec" stroke="#FFFFFF"></path><path d="M1055.3 611.1L1131.6 526.3L1001.3 540.3Z" fill="#1769aa" stroke="#FFFFFF"></path><path d="M1131.6 526.3L1193.6 377.4L1053.3 438.4Z" fill="#2196f3" stroke="#FFFFFF"></path><path d="M1165.6 223.7L1280 138.9L1122.6 54.9Z" fill="#1976bf" stroke="#FFFFFF"></path><path d="M0 619.1L0 720L118.4 662.1Z" fill="#1872b8" stroke="#FFFFFF"></path><path d="M1055.3 611.1L1144.6 655.1L1131.6 526.3Z" fill="#1872b8" stroke="#FFFFFF"></path><path d="M1131.6 526.3L1280 422.4L1193.6 377.4Z" fill="#1e8de4" stroke="#FFFFFF"></path><path d="M1099.3 720L1144.6 655.1L1055.3 611.1Z" fill="#186db1" stroke="#FFFFFF"></path><path d="M951.9 720L1099.3 720L1055.3 611.1Z" fill="#1a7bc7" stroke="#FFFFFF"></path><path d="M1280 299.6L1165.6 223.7L1193.6 377.4Z" fill="#2091ec" stroke="#FFFFFF"></path><path d="M1280 299.6L1280 252.7L1165.6 223.7Z" fill="#1c84d5" stroke="#FFFFFF"></path><path d="M1280 422.4L1280 299.6L1193.6 377.4Z" fill="#1d88dd" stroke="#FFFFFF"></path><path d="M1280 252.7L1280 138.9L1165.6 223.7Z" fill="#1872b8" stroke="#FFFFFF"></path><path d="M1280 560.3L1280 422.4L1131.6 526.3Z" fill="#2091ec" stroke="#FFFFFF"></path><path d="M1099.3 720L1170.6 720L1144.6 655.1Z" fill="#1d88dd" stroke="#FFFFFF"></path><path d="M1280 583.1L1280 560.3L1131.6 526.3Z" fill="#1976bf" stroke="#FFFFFF"></path><path d="M1280 138.9L1280 0L1122.6 54.9Z" fill="#1d88dd" stroke="#FFFFFF"></path><path d="M1280 583.1L1131.6 526.3L1144.6 655.1Z" fill="#1872b8" stroke="#FFFFFF"></path><path d="M1280 720L1280 583.1L1144.6 655.1Z" fill="#2091ec" stroke="#FFFFFF"></path><path d="M1170.6 720L1280 720L1144.6 655.1Z" fill="#1e8de4" stroke="#FFFFFF"></path></g></svg>