<svg id="visual" viewBox="0 0 1280 720" width="1280" height="720" xmlns="http://www.w3.org/2000/svg" xmlns:xlink="http://www.w3.org/1999/xlink" version="1.1"><rect x="0" y="0" width="1280" height="720" fill="#1769aa"></rect><path d="M0 73L15.2 83.5C30.3 94 60.7 115 91.2 115.7C121.7 116.3 152.3 96.7 182.8 91.8C213.3 87 243.7 97 274.2 99.7C304.7 102.3 335.3 97.7 365.8 105.2C396.3 112.7 426.7 132.3 457.2 128.8C487.7 125.3 518.3 98.7 548.8 90.2C579.3 81.7 609.7 91.3 640 95.3C670.3 99.3 700.7 97.7 731.2 91.8C761.7 86 792.3 76 822.8 69.7C853.3 63.3 883.7 60.7 914.2 61.8C944.7 63 975.3 68 1005.8 79.5C1036.3 91 1066.7 109 1097.2 119.2C1127.7 129.3 1158.3 131.7 1188.8 127.3C1219.3 123 1249.7 112 1264.8 106.5L1280 101L1280 0L1264.8 0C1249.7 0 1219.3 0 1188.8 0C1158.3 0 1127.7 0 1097.2 0C1066.7 0 1036.3 0 1005.8 0C975.3 0 944.7 0 914.2 0C883.7 0 853.3 0 822.8 0C792.3 0 761.7 0 731.2 0C700.7 0 670.3 0 640 0C609.7 0 579.3 0 548.8 0C518.3 0 487.7 0 457.2 0C426.7 0 396.3 0 365.8 0C335.3 0 304.7 0 274.2 0C243.7 0 213.3 0 182.8 0C152.3 0 121.7 0 91.2 0C60.7 0 30.3 0 15.2 0L0 0Z" fill="#2196f3" stroke-linecap="round" stroke-linejoin="miter"></path></svg>